<svg xmlns="http://www.w3.org/2000/svg" xmlns:xlink="http://www.w3.org/1999/xlink"  viewBox="0 0 638.5 682">
  <defs>
    <filter id="Ellipse_14" x="0" y="40.5" width="638" height="638" filterUnits="userSpaceOnUse">
      <feOffset input="SourceAlpha"/>
      <feGaussianBlur stdDeviation="7.5" result="blur"/>
      <feFlood flood-color="#484848" flood-opacity="0.161"/>
      <feComposite operator="in" in2="blur"/>
      <feComposite in="SourceGraphic"/>
    </filter>
    <filter id="Ellipse_15" x="75" y="114.5" width="490" height="490" filterUnits="userSpaceOnUse">
      <feOffset input="SourceAlpha"/>
      <feGaussianBlur stdDeviation="7.5" result="blur-2"/>
      <feFlood flood-color="#484848" flood-opacity="0.161"/>
      <feComposite operator="in" in2="blur-2"/>
      <feComposite in="SourceGraphic"/>
    </filter>
    <filter id="Ellipse_16" x="145" y="185.5" width="350" height="350" filterUnits="userSpaceOnUse">
      <feOffset input="SourceAlpha"/>
      <feGaussianBlur stdDeviation="7.5" result="blur-3"/>
      <feFlood flood-color="#484848" flood-opacity="0.161"/>
      <feComposite operator="in" in2="blur-3"/>
      <feComposite in="SourceGraphic"/>
    </filter>
    <filter id="Ellipse_17" x="221" y="262.5" width="196" height="196" filterUnits="userSpaceOnUse">
      <feOffset input="SourceAlpha"/>
      <feGaussianBlur stdDeviation="7.5" result="blur-4"/>
      <feFlood flood-color="#484848" flood-opacity="0.161"/>
      <feComposite operator="in" in2="blur-4"/>
      <feComposite in="SourceGraphic"/>
    </filter>
    <filter id="Ellipse_18" x="49" y="185.5" width="141" height="141" filterUnits="userSpaceOnUse">
      <feOffset input="SourceAlpha"/>
      <feGaussianBlur stdDeviation="7.5" result="blur-5"/>
      <feFlood flood-color="#484848" flood-opacity="0.161"/>
      <feComposite operator="in" in2="blur-5"/>
      <feComposite in="SourceGraphic"/>
    </filter>
    <filter id="Ellipse_19" x="250" y="66.5" width="141" height="141" filterUnits="userSpaceOnUse">
      <feOffset input="SourceAlpha"/>
      <feGaussianBlur stdDeviation="7.5" result="blur-6"/>
      <feFlood flood-color="#484848" flood-opacity="0.161"/>
      <feComposite operator="in" in2="blur-6"/>
      <feComposite in="SourceGraphic"/>
    </filter>
    <filter id="Ellipse_20" x="439" y="179.5" width="141" height="141" filterUnits="userSpaceOnUse">
      <feOffset input="SourceAlpha"/>
      <feGaussianBlur stdDeviation="7.5" result="blur-7"/>
      <feFlood flood-color="#484848" flood-opacity="0.161"/>
      <feComposite operator="in" in2="blur-7"/>
      <feComposite in="SourceGraphic"/>
    </filter>
    <filter id="Ellipse_21" x="455" y="363.5" width="141" height="141" filterUnits="userSpaceOnUse">
      <feOffset input="SourceAlpha"/>
      <feGaussianBlur stdDeviation="7.5" result="blur-8"/>
      <feFlood flood-color="#484848" flood-opacity="0.161"/>
      <feComposite operator="in" in2="blur-8"/>
      <feComposite in="SourceGraphic"/>
    </filter>
    <filter id="Ellipse_22" x="250" y="498.5" width="141" height="141" filterUnits="userSpaceOnUse">
      <feOffset input="SourceAlpha"/>
      <feGaussianBlur stdDeviation="7.5" result="blur-9"/>
      <feFlood flood-color="#484848" flood-opacity="0.161"/>
      <feComposite operator="in" in2="blur-9"/>
      <feComposite in="SourceGraphic"/>
    </filter>
    <filter id="Ellipse_23" x="55" y="365.5" width="141" height="141" filterUnits="userSpaceOnUse">
      <feOffset input="SourceAlpha"/>
      <feGaussianBlur stdDeviation="7.5" result="blur-10"/>
      <feFlood flood-color="#484848" flood-opacity="0.161"/>
      <feComposite operator="in" in2="blur-10"/>
      <feComposite in="SourceGraphic"/>
    </filter>
  </defs>
  <g id="Circle_group" transform="translate(-1066.5 -3128)">
    <circle id="Ellipse_12" data-name="Ellipse 12" cx="204" cy="204" r="204" transform="translate(1274 3128)" fill="#1889e2"/>
    <circle id="Ellipse_13" data-name="Ellipse 13" cx="198.5" cy="198.5" r="198.5" transform="translate(1308 3413)" fill="#f9c51a"/>
    <g transform="matrix(1, 0, 0, 1, 1066.5, 3128)" filter="url(#Ellipse_14)">
      <circle id="Ellipse_14-2" data-name="Ellipse 14" cx="296.5" cy="296.5" r="296.5" transform="translate(22.5 63)" fill="#fff"/>
    </g>
    <g transform="matrix(1, 0, 0, 1, 1066.5, 3128)" filter="url(#Ellipse_15)">
      <circle id="Ellipse_15-2" data-name="Ellipse 15" cx="222.5" cy="222.5" r="222.5" transform="translate(97.5 137)" fill="#fff"/>
    </g>
    <g transform="matrix(1, 0, 0, 1, 1066.5, 3128)" filter="url(#Ellipse_16)">
      <circle id="Ellipse_16-2" data-name="Ellipse 16" cx="152.5" cy="152.5" r="152.5" transform="translate(167.5 208)" fill="#fff"/>
    </g>
    <g transform="matrix(1, 0, 0, 1, 1066.5, 3128)" filter="url(#Ellipse_17)">
      <circle id="Ellipse_17-2" data-name="Ellipse 17" cx="75.5" cy="75.5" r="75.5" transform="translate(243.5 285)" fill="#fff"/>
    </g>
    <g transform="matrix(1, 0, 0, 1, 1066.5, 3128)" filter="url(#Ellipse_18)">
      <circle id="Ellipse_18-2" data-name="Ellipse 18" cx="48" cy="48" r="48" transform="translate(71.5 208)" fill="#fff"/>
    </g>
    <g transform="matrix(1, 0, 0, 1, 1066.5, 3128)" filter="url(#Ellipse_19)">
      <circle id="Ellipse_19-2" data-name="Ellipse 19" cx="48" cy="48" r="48" transform="translate(272.5 89)" fill="#fff"/>
    </g>
    <g transform="matrix(1, 0, 0, 1, 1066.5, 3128)" filter="url(#Ellipse_20)">
      <circle id="Ellipse_20-2" data-name="Ellipse 20" cx="48" cy="48" r="48" transform="translate(461.5 202)" fill="#fff"/>
    </g>
    <g transform="matrix(1, 0, 0, 1, 1066.5, 3128)" filter="url(#Ellipse_21)">
      <circle id="Ellipse_21-2" data-name="Ellipse 21" cx="48" cy="48" r="48" transform="translate(477.5 386)" fill="#fff"/>
    </g>
    <g transform="matrix(1, 0, 0, 1, 1066.5, 3128)" filter="url(#Ellipse_22)">
      <circle id="Ellipse_22-2" data-name="Ellipse 22" cx="48" cy="48" r="48" transform="translate(272.5 521)" fill="#fff"/>
    </g>
    <g transform="matrix(1, 0, 0, 1, 1066.5, 3128)" filter="url(#Ellipse_23)">
      <circle id="Ellipse_23-2" data-name="Ellipse 23" cx="48" cy="48" r="48" transform="translate(77.5 388)" fill="#fff"/>
    </g>
    <g id="freelancer" transform="translate(1150 3554)">
      <path id="Path_31" data-name="Path 31" d="M11.538,3.061,0,2.419l7.52,8.064ZM5.766,2.2l5.322.38L4.492,0Zm6.663.38L15.264,0l1.912,2.742Zm-.319.511L7.933,10.8l3.793,4.173,4.267-3.982,1.179-7.647ZM8.158,12.012,6.149,20.4l5.225-4.973ZM15.869.128l2.04,2.614L27.374.128Z" fill="#29b2fe"/>
      <path id="Path_32" data-name="Path 32" d="M580.706,145.1a14.326,14.326,0,0,1-.121,1.935c-.669.024-1.505-.218-1.482.931,1.028-.023,1.3,0,1.3,0s-.047,2.033-1.579,1.956c-.551,3.108-1.075,5.833-1.075,5.833H575.3l1.337-8.692a2.4,2.4,0,0,1,1.912-1.956Zm-1.075,10.661,1.29-7.933h2.248l.175.6s.565-.79,2.261-.6c-.407,1.935-.477,2.224-.477,2.224s-1.865-.191-2.009.407-.884,5.305-.884,5.305Zm19.908-6.5c-.5-.907-1.411-1.737-3.562-1.465s-3.693,2.389-3.585,5.262a2.879,2.879,0,0,0,2.51,2.893c4.039.477,4.089-1.626,4.113-2.416-.837,0-1.23.017-1.579.024-.1.329-1.737.168-1.737.168s-.622-.047-.669-1.146h4.519S600.043,150.17,599.539,149.26Zm-2.318,1.935c-.454.047-1.982,0-1.982,0C595.836,148.83,597.483,149.858,597.221,151.2Zm34.057-1.935c-.5-.907-1.411-1.737-3.562-1.465s-3.693,2.389-3.585,5.262a2.879,2.879,0,0,0,2.51,2.893c4.039.477,4.089-1.626,4.113-2.416-.837,0-1.23.017-1.579.024-.1.329-1.737.168-1.737.168s-.622-.047-.669-1.146h4.512S631.768,150.17,631.277,149.26Zm-2.318,1.935c-.454.047-1.982,0-1.982,0,.588-2.365,2.238-1.337,1.972,0Z" transform="translate(-555.97 -140.225)"/>
      <path id="Path_33" data-name="Path 33" d="M871.495,154.768c-.5-.907-1.411-1.737-3.562-1.465s-3.693,2.389-3.585,5.262a2.879,2.879,0,0,0,2.51,2.893c4.039.477,4.089-1.626,4.113-2.416-.837,0-1.23.017-1.579.024-.1.329-1.737.168-1.737.168s-.622-.047-.669-1.146H871.5s.5-2.409,0-3.32Zm-2.322,1.935c-.454.047-1.982,0-1.982,0,.608-2.365,2.248-1.337,1.982,0Zm11.394-5.9-1.65,10.466h2.631l1.767-10.466Zm8.82,10.47,1.337-7.963h2.342v.608s.813-.884,2.964-.608S897.1,157.4,897.1,157.4l-.574,3.877h-2.581s.6-3.911.716-4.949a.952.952,0,0,0-1.841-.286c-.168,1.028-.931,5.235-.931,5.235Zm11.639-5.688h2.365l.218-1.552s.286-.716-.716-.729-2.51,0-2.51,0-2.94.417-2.772,6.179a2.466,2.466,0,0,0,1.956,2.053c.218.047,1.737,0,1.737,0s1.7-.218,1.458-2.342c-1.767.047-2.51.121-2.607-.383s.2-3.034.87-3.226Zm10.181.38L914.3,153.3l-1.179,7.973h-2.611Z" transform="translate(-835.301 -145.733)"/>
      <path id="Path_34" data-name="Path 34" d="M2357.247,223.844l-.447,2.856,4.812-2.9Z" transform="translate(-2277.612 -216.28)" fill="#29b2fe"/>
      <path id="Path_35" data-name="Path 35" d="M1405.421,225.161c-1.983-.017-2.439.017-3.179,0s-1.243,1.085-1.2,2.255h3.041s.309-.047.336.218a7.356,7.356,0,0,1,0,.766h-2.2s-3.108.286-2.127,4.039a1.939,1.939,0,0,0,1.673.954,6,6,0,0,0,2.056-.692l.024.454,2.342-.023s.79-4.9.884-5.305a2.246,2.246,0,0,0-1.65-2.664Zm-2.05,6.229c-.924,0-1.052-.894-.316-1.371a1.581,1.581,0,0,1,1.179-.128s.034,1.532-.864,1.5Z" transform="translate(-1352.864 -217.59)"/>
    </g>
    <g id="google" transform="translate(1337 3436)">
      <path id="Path_15" data-name="Path 15" d="M111.459,325.652A49.444,49.444,0,0,1,36.4,312.937l3.246-14.965,14.39-2.671a26.553,26.553,0,0,0,25.254,18.691,25.99,25.99,0,0,0,15.469-5.039l13.828,2.109Z" transform="translate(-29.291 -237.624)" fill="#59c36a"/>
      <path id="Path_16" data-name="Path 16" d="M288.168,381.9l-2.871-14.59L271.469,365.2A25.99,25.99,0,0,1,256,370.239v23.633A49.924,49.924,0,0,0,288.168,381.9Z" transform="translate(-206 -293.872)" fill="#00a66c"/>
      <g id="Connected_Home_1_" transform="translate(0 24.687)">
        <g id="Group_8" data-name="Group 8">
          <g id="Group_7" data-name="Group 7">
            <g id="Group_6" data-name="Group 6">
              <path id="Path_17" data-name="Path 17" d="M23.633,151.712a27.307,27.307,0,0,0,1.113,7.676L7.109,177.025a48.617,48.617,0,0,1,0-50.625l14.155,2.436,3.482,15.2a27.3,27.3,0,0,0-1.113,7.676Z" transform="translate(0 -126.4)" fill="#ffda2d"/>
            </g>
          </g>
        </g>
      </g>
      <path id="Path_18" data-name="Path 18" d="M293.93,207.719A49.922,49.922,0,0,1,276.1,245.746l-16.7-16.7a25.926,25.926,0,0,0,8.145-9.609H243.93a2.9,2.9,0,0,1-2.93-2.93V198.93a2.9,2.9,0,0,1,2.93-2.93h46.25a2.9,2.9,0,0,1,2.871,2.4A49.683,49.683,0,0,1,293.93,207.719Z" transform="translate(-193.93 -157.719)" fill="#4086f4"/>
      <path id="Path_19" data-name="Path 19" d="M279.613,219.438a25.928,25.928,0,0,1-8.145,9.609l16.7,16.7A49.521,49.521,0,0,0,305.121,198.4a2.9,2.9,0,0,0-2.871-2.4H256v23.438Z" transform="translate(-206 -157.719)" fill="#4175df"/>
      <path id="Path_20" data-name="Path 20" d="M112.279,13.965a2.957,2.957,0,0,1-.82,2.168L98.92,28.613a2.869,2.869,0,0,1-3.808.293,26.208,26.208,0,0,0-15.821-5.273A26.552,26.552,0,0,0,54.037,42.324L36.4,24.687A49.414,49.414,0,0,1,111.224,11.8a3.081,3.081,0,0,1,1.055,2.168Z" transform="translate(-29.291)" fill="#ff641a"/>
      <path id="Path_21" data-name="Path 21" d="M271.82,28.906a2.869,2.869,0,0,0,3.808-.293l12.539-12.48a2.955,2.955,0,0,0,.82-2.168,3.081,3.081,0,0,0-1.055-2.168A49.849,49.849,0,0,0,256,0V23.633A26.207,26.207,0,0,1,271.82,28.906Z" transform="translate(-206 0)" fill="#f03800"/>
    </g>
    <g id="dropbox" transform="translate(1550 3343.087)">
      <path id="Path_22" data-name="Path 22" d="M24.13,184.9,10.8,176.309a1.194,1.194,0,0,0-1.4.073l-8.96,7.211a1.194,1.194,0,0,0,.1,1.934l13.327,8.594a1.194,1.194,0,0,0,1.4-.073l8.96-7.21A1.194,1.194,0,0,0,24.13,184.9Z" transform="translate(0 -146.881)" fill="#1587ea"/>
      <path id="Path_23" data-name="Path 23" d="M235.446,186.838l8.96,7.21a1.194,1.194,0,0,0,1.4.073l13.327-8.594a1.194,1.194,0,0,0,.1-1.934l-8.96-7.21a1.194,1.194,0,0,0-1.4-.073L235.548,184.9A1.194,1.194,0,0,0,235.446,186.838Z" transform="translate(-207.677 -146.881)" fill="#1587ea"/>
      <path id="Path_24" data-name="Path 24" d="M24.231,17.387l-8.96-7.21a1.194,1.194,0,0,0-1.4-.073L.548,18.7a1.194,1.194,0,0,0-.1,1.934l8.96,7.21a1.194,1.194,0,0,0,1.4.073L24.13,19.321A1.194,1.194,0,0,0,24.231,17.387Z" transform="translate(0)" fill="#1587ea"/>
      <path id="Path_25" data-name="Path 25" d="M259.13,18.7,245.8,10.1a1.194,1.194,0,0,0-1.4.073l-8.96,7.21a1.194,1.194,0,0,0,.1,1.934l13.328,8.595a1.194,1.194,0,0,0,1.4-.073l8.96-7.21A1.194,1.194,0,0,0,259.13,18.7Z" transform="translate(-207.676 0)" fill="#1587ea"/>
      <path id="Path_26" data-name="Path 26" d="M100.641,277.4l-10.034,8a1.083,1.083,0,0,1-1.263.064l-2.473-1.6a1.083,1.083,0,0,0-1.671.911v.862a1.084,1.084,0,0,0,.522.927l14.939,9.056a1.083,1.083,0,0,0,1.123,0l14.939-9.056a1.083,1.083,0,0,0,.522-.927v-.77a1.083,1.083,0,0,0-1.671-.911l-2.328,1.5a1.083,1.083,0,0,1-1.265-.065l-9.987-8A1.084,1.084,0,0,0,100.641,277.4Z" transform="translate(-75.293 -236.18)" fill="#1587ea"/>
    </g>
    <g id="Amazon_logo" transform="translate(1342 3691)">
      <path id="path8" d="M185.362,196.309c-5.412,3.989-13.255,6.117-20.009,6.117A36.206,36.206,0,0,1,140.91,193.1c-.507-.458-.053-1.082.555-.726a49.2,49.2,0,0,0,24.455,6.486,48.63,48.63,0,0,0,18.655-3.814c.916-.389,1.682.6.786,1.265" transform="translate(-127.59 -174.362)" fill="#f90" fill-rule="evenodd"/>
      <path id="path10" d="M578.657,184.256c-.689-.884-4.572-.418-6.315-.211-.531.065-.612-.4-.134-.73,3.093-2.177,8.168-1.548,8.76-.819s-.154,5.821-3.06,8.249c-.446.373-.872.174-.673-.32.653-1.63,2.116-5.282,1.423-6.17" transform="translate(-518.635 -164.884)" fill="#f90" fill-rule="evenodd"/>
      <path id="path12" d="M572.776,7.091V4.975a.522.522,0,0,1,.535-.535h9.473a.527.527,0,0,1,.547.535V6.787a2.98,2.98,0,0,1-.713,1.33l-4.909,7.009a10.46,10.46,0,0,1,5.4,1.159.964.964,0,0,1,.5.823v2.258c0,.308-.341.669-.7.482a10.913,10.913,0,0,0-10.008.016c-.328.178-.673-.178-.673-.486V17.233a2.559,2.559,0,0,1,.349-1.455l5.687-8.156h-4.949a.524.524,0,0,1-.547-.531" transform="translate(-518.948 -4.027)" fill-rule="evenodd"/>
      <path id="path14" d="M173.858,17.649h-2.882a.544.544,0,0,1-.515-.49V2.367a.541.541,0,0,1,.555-.531H173.7a.543.543,0,0,1,.523.495V4.264h.053a3.8,3.8,0,0,1,3.794-2.74c1.8,0,2.931.872,3.741,2.74a4.256,4.256,0,0,1,7.317-1.123c.912,1.244.726,3.052.726,4.637l0,9.335a.544.544,0,0,1-.555.535H186.42a.548.548,0,0,1-.519-.535V9.274A18.515,18.515,0,0,0,185.82,6.5a1.5,1.5,0,0,0-1.694-1.273A1.915,1.915,0,0,0,182.4,6.441a8.955,8.955,0,0,0-.268,2.833v7.84a.544.544,0,0,1-.555.535H178.7a.545.545,0,0,1-.519-.535l0-7.84c0-1.65.272-4.078-1.775-4.078-2.071,0-1.99,2.367-1.99,4.078v7.84a.544.544,0,0,1-.555.535" transform="translate(-154.587 -1.382)" fill-rule="evenodd"/>
      <path id="path16" d="M715.8,1.524c4.277,0,6.591,3.673,6.591,8.342,0,4.512-2.558,8.091-6.591,8.091-4.2,0-6.486-3.673-6.486-8.249,0-4.6,2.315-8.184,6.486-8.184m.024,3.02c-2.124,0-2.258,2.894-2.258,4.7s-.028,5.667,2.234,5.667c2.233,0,2.339-3.113,2.339-5.01a13.676,13.676,0,0,0-.43-3.924,1.8,1.8,0,0,0-1.885-1.431" transform="translate(-643.258 -1.382)" fill-rule="evenodd"/>
      <path id="path18" d="M876.244,17.649h-2.87a.548.548,0,0,1-.519-.535l0-14.8a.545.545,0,0,1,.555-.482h2.671a.552.552,0,0,1,.515.413V4.511h.053c.807-2.023,1.938-2.988,3.928-2.988a3.782,3.782,0,0,1,3.365,1.743c.754,1.184.754,3.174.754,4.6v9.311a.554.554,0,0,1-.555.466h-2.89a.546.546,0,0,1-.511-.466V9.149c0-1.617.186-3.985-1.8-3.985a1.884,1.884,0,0,0-1.666,1.184,6.548,6.548,0,0,0-.458,2.8v7.965a.554.554,0,0,1-.563.535" transform="translate(-791.568 -1.382)" fill-rule="evenodd"/>
      <path id="path28" d="M414.229,9.2a5.638,5.638,0,0,1-.539,3.056,2.342,2.342,0,0,1-1.994,1.309c-1.107,0-1.755-.843-1.755-2.088,0-2.456,2.2-2.9,4.289-2.9V9.2m2.906,7.025a.6.6,0,0,1-.681.069,7.024,7.024,0,0,1-1.654-1.921,5.707,5.707,0,0,1-4.751,2.1c-2.428,0-4.313-1.5-4.313-4.491a4.891,4.891,0,0,1,3.073-4.71,19.97,19.97,0,0,1,5.42-1V5.894a3.676,3.676,0,0,0-.353-2.088,1.919,1.919,0,0,0-1.617-.75,2.193,2.193,0,0,0-2.315,1.731.6.6,0,0,1-.5.527l-2.793-.3a.508.508,0,0,1-.43-.6C406.86,1.022,409.924,0,412.665,0a6.534,6.534,0,0,1,4.341,1.435c1.4,1.309,1.269,3.056,1.269,4.958v4.491a3.942,3.942,0,0,0,1.086,2.671.545.545,0,0,1-.012.766c-.588.49-1.634,1.4-2.209,1.913l0-.008" transform="translate(-367.954)" fill-rule="evenodd"/>
      <path id="path30" d="M8.492,9.2a5.638,5.638,0,0,1-.539,3.056,2.337,2.337,0,0,1-1.994,1.309c-1.107,0-1.751-.843-1.751-2.088,0-2.456,2.2-2.9,4.285-2.9V9.2M11.4,16.227a.6.6,0,0,1-.681.069,7.1,7.1,0,0,1-1.654-1.921,5.7,5.7,0,0,1-4.751,2.1C1.889,16.47,0,14.974,0,11.979a4.9,4.9,0,0,1,3.073-4.71,19.97,19.97,0,0,1,5.42-1V5.894a3.708,3.708,0,0,0-.349-2.088,1.928,1.928,0,0,0-1.617-.75A2.2,2.2,0,0,0,4.208,4.788a.6.6,0,0,1-.5.527l-2.8-.3a.51.51,0,0,1-.43-.6C1.127,1.022,4.187,0,6.928,0a6.534,6.534,0,0,1,4.341,1.435c1.4,1.309,1.269,3.056,1.269,4.958v4.491a3.942,3.942,0,0,0,1.086,2.671.541.541,0,0,1-.008.766c-.588.49-1.634,1.4-2.209,1.913l-.008-.008" transform="translate(0)" fill-rule="evenodd"/>
    </g>
    <g id="upwork" transform="translate(1141.814 3370.85)">
      <path id="Path_29" data-name="Path 29" d="M24.139,36.206a6.336,6.336,0,0,1-3.972-1.585l.3-1.386.013-.051c.263-1.476,1.1-3.953,3.664-3.953a3.487,3.487,0,1,1,0,6.975Zm0-10.51c-3.279,0-5.82,2.13-6.853,5.634a28.86,28.86,0,0,1-3.471-7.6H10.286v9.182a3.285,3.285,0,0,1-6.571,0V23.726H.186v9.182a6.815,6.815,0,1,0,13.629,0v-1.54a21.982,21.982,0,0,0,2.547,4.158L14.2,45.69h3.613l1.566-7.373a8.692,8.692,0,0,0,4.761,1.431,7.026,7.026,0,0,0,0-14.052Z" transform="translate(0 -19.54)" fill="#6fda44"/>
      <path id="Path_30" data-name="Path 30" d="M192.505,6.554l2.278,9.182,2.509-9.182h2.99l-3.856,13.269h-2.99l-2.368-9.24-2.361,9.233h-2.99L181.86,6.547h2.99l2.509,9.182,2.278-9.182h2.868v.007Zm14.931-.4a7.026,7.026,0,1,0,7.033,7.026,7.028,7.028,0,0,0-7.033-7.026Zm0,11.165a4.132,4.132,0,1,1,4.132-4.132A4.13,4.13,0,0,1,207.437,17.321Zm15.573-7.8a3.632,3.632,0,0,0-3.632,3.632v6.66h-3.01V6.554h3.01v2.04a4.812,4.812,0,0,1,3.92-2.047h.924V9.525H223.01Zm10.1,3.144A7.033,7.033,0,0,0,236.7,6.547h-3.01a4.012,4.012,0,0,1-4.01,4.01h-.4V.15h-3.009V19.817h3.009v-6.25h.36a1.191,1.191,0,0,1,.853.43l4.273,5.82h3.606l-5.255-7.148Z" transform="translate(-150.573)"/>
    </g>
    <g id="tesla-motors-1" transform="translate(1358 3230)">
      <path id="Path_36" data-name="Path 36" d="M45.6,326.856v4.2h1.346v-2.795h4.9v2.795h1.345v-4.19Zm1.2-1.358h5.176a1.91,1.91,0,0,0,1.4-1.391H45.4a1.918,1.918,0,0,0,1.4,1.391m-5.273,5.558a1.925,1.925,0,0,0,1.184-1.368H36.674l0-5.578-1.353,0v6.942Zm-16.267-5.577h4.78a2.1,2.1,0,0,0,1.473-1.367H23.921v4.1h6.215v1.44l-4.875,0a2.719,2.719,0,0,0-1.735,1.4l.395-.007h7.55v-4.2h-6.21Zm-11.8.013h5.174a1.909,1.909,0,0,0,1.4-1.392H12.056a1.918,1.918,0,0,0,1.4,1.392m0,2.743h5.174a1.905,1.905,0,0,0,1.4-1.391H12.056a1.914,1.914,0,0,0,1.4,1.391m0,2.819h5.174a1.908,1.908,0,0,0,1.4-1.391H12.056a1.917,1.917,0,0,0,1.4,1.391M0,324.118A1.931,1.931,0,0,0,1.4,325.5H3.579l.111.044v5.5h1.36v-5.5l.124-.044h2.18a1.958,1.958,0,0,0,1.4-1.382V324.1H0Z" transform="translate(0 -262.018)" fill="#e82127"/>
      <path id="Path_37" data-name="Path 37" d="M45.832,68.227l6.8-38.219c6.477,0,8.521.71,8.816,3.609,0,0,4.345-1.62,6.537-4.911a48.021,48.021,0,0,0-17.145-4.142l-5.014,6.107h.011l-5.014-6.107a48.016,48.016,0,0,0-17.144,4.142c2.19,3.291,6.537,4.911,6.537,4.911.3-2.9,2.337-3.61,8.771-3.614Z" transform="translate(-19.139 -19.859)" fill="#e82127"/>
      <path id="Path_38" data-name="Path 38" d="M36.832,2.942a55.99,55.99,0,0,1,22.927,4.6,18.616,18.616,0,0,0,1.361-2.81A66.489,66.489,0,0,0,36.831,0,66.48,66.48,0,0,0,12.544,4.732a23.5,23.5,0,0,0,1.36,2.81,55.985,55.985,0,0,1,22.927-4.6Z" transform="translate(-10.141)" fill="#e82127"/>
    </g>
    <g id="skype" transform="translate(1571.968 3540)">
      <path id="Path_27" data-name="Path 27" d="M43.73,27.277a21.042,21.042,0,0,0,.495-4.541A21.311,21.311,0,0,0,22.766,1.575a21.9,21.9,0,0,0-3.668.309A12.5,12.5,0,0,0,12.478,0,12.36,12.36,0,0,0,.032,12.275a12.108,12.108,0,0,0,1.71,6.208,20.892,20.892,0,0,0-.434,4.253c0,11.69,9.606,20.812,21.457,20.812a21.893,21.893,0,0,0,3.928-.354A12.85,12.85,0,0,0,32.577,45,12.358,12.358,0,0,0,45.022,32.727,12.088,12.088,0,0,0,43.73,27.277Z" fill="#00aff0"/>
      <path id="Path_28" data-name="Path 28" d="M101.787,85.355a8.124,8.124,0,0,1-3.636,2.767,14.582,14.582,0,0,1-5.672,1,13.673,13.673,0,0,1-6.49-1.368,8.4,8.4,0,0,1-2.946-2.627,5.649,5.649,0,0,1-1.132-3.2,2.041,2.041,0,0,1,.679-1.54,2.4,2.4,0,0,1,1.729-.644,2.134,2.134,0,0,1,1.441.5,3.86,3.86,0,0,1,1.005,1.483,9.507,9.507,0,0,0,1.1,1.953,4.367,4.367,0,0,0,1.656,1.293,6.651,6.651,0,0,0,2.811.508,6.74,6.74,0,0,0,3.889-1.025,3.029,3.029,0,0,0,1.5-2.56,2.584,2.584,0,0,0-.807-1.974,5.288,5.288,0,0,0-2.085-1.159q-1.276-.4-3.418-.852a26.563,26.563,0,0,1-4.792-1.441,7.7,7.7,0,0,1-3.064-2.251,5.522,5.522,0,0,1-1.133-3.545,5.741,5.741,0,0,1,1.2-3.585,7.492,7.492,0,0,1,3.462-2.411,15.259,15.259,0,0,1,5.327-.842,14.349,14.349,0,0,1,4.234.557A9.2,9.2,0,0,1,99.6,65.886a6.3,6.3,0,0,1,1.722,1.943,4.187,4.187,0,0,1,.544,1.982,2.37,2.37,0,0,1-2.372,2.3,2.066,2.066,0,0,1-1.406-.426,5.7,5.7,0,0,1-1.04-1.393A6.386,6.386,0,0,0,95.3,68.138a5.416,5.416,0,0,0-3.262-.776,6,6,0,0,0-3.362.842A2.416,2.416,0,0,0,87.4,70.231a1.957,1.957,0,0,0,.436,1.267,3.514,3.514,0,0,0,1.2.915,8.6,8.6,0,0,0,1.538.6q.778.217,2.576.633,2.244.483,4.068,1.067a12.992,12.992,0,0,1,3.1,1.416,6.019,6.019,0,0,1,1.994,2.115,6.3,6.3,0,0,1,.717,3.126A6.779,6.779,0,0,1,101.787,85.355Z" transform="translate(-69.233 -53.983)" fill="#fff"/>
    </g>
  </g>
</svg>
